<?xml version="1.0" encoding="utf-8"?>
<!-- Generator: Adobe Illustrator 19.2.1, SVG Export Plug-In . SVG Version: 6.00 Build 0)  -->
<!DOCTYPE svg PUBLIC "-//W3C//DTD SVG 1.1//EN" "http://www.w3.org/Graphics/SVG/1.1/DTD/svg11.dtd">
<svg version="1.1" id="Layer_1" xmlns="http://www.w3.org/2000/svg" xmlns:xlink="http://www.w3.org/1999/xlink" x="0px" y="0px"
	 viewBox="0 0 668.3 48.4" enable-background="new 0 0 668.3 48.4" xml:space="preserve">
<g>
	<polygon points="413.4,29.9 405,19.9 402.1,16.5 396.6,16.5 396.6,22.9 396.6,48.4 405,48.4 405,32.9 413.4,42.9 418,48.4 
		421.8,48.4 421.8,39.9 421.8,16.5 413.4,16.5 	"/>
	<polygon points="620.8,29.9 612.4,19.9 609.5,16.5 604,16.5 604,22.9 604,48.4 612.4,48.4 612.4,32.9 620.8,42.9 625.4,48.4 
		629.2,48.4 629.2,39.9 629.2,16.5 620.8,16.5 	"/>
	<rect x="321.3" width="268.7" height="7.7"/>
	<polygon points="643.2,24.2 651.6,24.2 651.6,48.4 659.9,48.4 659.9,24.2 668.3,24.2 668.3,16.5 643.2,16.5 	"/>
	<polygon points="325.5,16.5 321.3,16.5 321.3,48.4 329.7,48.4 329.7,36.2 338.3,36.2 338.3,29.3 329.7,29.3 329.7,23.4 341.3,23.4 
		341.3,16.5 329.7,16.5 	"/>
	<polygon points="574.2,16.5 570,16.5 570,48.4 574.2,48.4 578.4,48.4 590,48.4 590,41.5 578.4,41.5 578.4,35.2 587,35.2 587,28.3 
		578.4,28.3 578.4,23.4 590,23.4 590,16.5 578.4,16.5 	"/>
	<path d="M373.2,35.8L373.2,35.8c0,2.4-1.9,4.3-4.3,4.3s-4.3-1.9-4.3-4.3h0V16.5h-8.4v19.3c0,7,5.7,12.7,12.7,12.7
		s12.7-5.7,12.7-12.7h0V16.5h-8.4V35.8z"/>
	<path d="M450,16.5L450,16.5l-4.9,0h-7.9h-0.4v31.9h0.4h7.9h4.9v0c8.8,0,16-7.1,16-16C466,23.6,458.8,16.5,450,16.5z M450,40.7
		L450,40.7l-4.9,0V24.2h4.9c4.5,0,8.2,3.7,8.2,8.2C458.2,37,454.6,40.7,450,40.7z"/>
	<path d="M494.6,16.5h-6.3l-1.5,3.2l-13.4,28.8h9.3l2.5-5.3h12.6l2.5,5.3h9.3L496,19.6L494.6,16.5z M488.3,36.2l3.1-6.6l3.1,6.6
		H488.3z"/>
	<polygon points="538.2,27.1 526.4,16.5 521.4,16.5 521.4,21.6 521.4,21.6 521.4,48.4 529.8,48.4 529.8,30.8 531.9,32.7 538.2,38.4 
		544.5,32.7 546.6,30.8 546.6,48.4 555,48.4 555,23.2 555,21.6 555,16.5 550,16.5 	"/>
	<rect x="655.5" width="12.9" height="7.7"/>
	<rect x="629.8" width="12.9" height="7.7"/>
	<rect x="604" width="12.9" height="7.7"/>
</g>
<g>
	<path d="M17.6,37c0,1.5-0.4,2.9-1.1,4c-0.8,1.2-1.9,2.1-3.3,2.7c-1.4,0.7-3.1,1-5.1,1c-1.6,0-3-0.1-4.1-0.3
		c-1.1-0.2-2.2-0.6-3.4-1.2v-5.9c1.3,0.6,2.6,1.1,3.9,1.5c1.4,0.4,2.6,0.5,3.7,0.5c1,0,1.7-0.2,2.1-0.5c0.5-0.3,0.7-0.8,0.7-1.3
		c0-0.3-0.1-0.6-0.3-0.9s-0.5-0.5-0.9-0.8c-0.4-0.3-1.5-0.8-3.2-1.6C5,33.7,3.8,33,3,32.3c-0.8-0.7-1.4-1.5-1.8-2.3S0.7,28,0.7,26.8
		c0-2.2,0.8-4,2.4-5.2c1.6-1.3,3.9-1.9,6.7-1.9c2.5,0,5.1,0.6,7.7,1.7l-2,5.1c-2.3-1-4.2-1.6-5.9-1.6c-0.9,0-1.5,0.1-1.9,0.4
		c-0.4,0.3-0.6,0.7-0.6,1.1c0,0.5,0.2,0.9,0.7,1.3c0.5,0.4,1.8,1.1,4,2.1c2.1,0.9,3.6,2,4.4,3C17.1,34,17.6,35.4,17.6,37z"/>
	<path d="M38.1,27.8c0,2.7-0.8,4.8-2.4,6.3s-3.9,2.2-6.8,2.2H27v8.1h-6.6V20.1h8.4c3.1,0,5.4,0.7,6.9,2
		C37.4,23.4,38.1,25.3,38.1,27.8z M27,31h1.2c1,0,1.8-0.3,2.4-0.8c0.6-0.6,0.9-1.3,0.9-2.3c0-1.6-0.9-2.5-2.7-2.5H27V31z"/>
	<path d="M64,32.2c0,4.1-1,7.2-3,9.3c-2,2.1-5,3.2-8.8,3.2c-3.8,0-6.7-1.1-8.8-3.2c-2-2.1-3.1-5.3-3.1-9.4c0-4.1,1-7.1,3-9.3
		c2-2.1,5-3.2,8.8-3.2c3.9,0,6.8,1.1,8.8,3.2C63,25,64,28.1,64,32.2z M47.2,32.2c0,4.7,1.6,7.1,4.9,7.1c1.7,0,2.9-0.6,3.7-1.7
		s1.2-2.9,1.2-5.3c0-2.4-0.4-4.2-1.2-5.4c-0.8-1.2-2-1.7-3.7-1.7C48.8,25.1,47.2,27.4,47.2,32.2z"/>
	<path d="M68.4,44.4v-8l-1.7,0.9l-2.4-4.1l4.1-2.4V20.1H75v6.7l3.5-2.2l2.5,4.1l-6,3.7v6.8h9.4v5.3H68.4z"/>
	<path d="M101.9,44.4H87.4V20.1h14.5v5.3H94v3.8h7.3v5.3H94V39h7.9V44.4z"/>
	<path d="M116.1,25.1c-1.6,0-2.8,0.6-3.7,1.9c-0.9,1.3-1.3,3.1-1.3,5.3c0,4.7,1.8,7,5.3,7c1.1,0,2.1-0.1,3.1-0.4s2-0.7,3-1.1v5.6
		c-2,0.9-4.3,1.3-6.9,1.3c-3.7,0-6.5-1.1-8.5-3.2c-2-2.1-2.9-5.2-2.9-9.2c0-2.5,0.5-4.7,1.4-6.6c0.9-1.9,2.3-3.4,4.1-4.4
		c1.8-1,3.9-1.5,6.3-1.5c2.6,0,5.1,0.6,7.5,1.7l-2,5.2c-0.9-0.4-1.8-0.8-2.7-1.1C118.1,25.2,117.2,25.1,116.1,25.1z"/>
	<path d="M143.9,44.4h-19v-4.1l10.5-15h-10.3v-5.3h18.5v4l-10.5,15h10.8V44.4z"/>
	<path d="M169.7,44.4h-8.6l-8.9-17.2h-0.1c0.2,2.7,0.3,4.8,0.3,6.2v11h-5.8V20.1h8.6L164,37h0.1c-0.2-2.5-0.2-4.4-0.2-5.9v-11h5.9
		V44.4z"/>
	<path d="M196.9,32.2c0,4.1-1,7.2-3,9.3c-2,2.1-5,3.2-8.8,3.2c-3.8,0-6.7-1.1-8.8-3.2c-2-2.1-3.1-5.3-3.1-9.4c0-4.1,1-7.1,3-9.3
		c2-2.1,5-3.2,8.8-3.2c3.9,0,6.8,1.1,8.8,3.2C195.9,25,196.9,28.1,196.9,32.2z M180.2,32.2c0,4.7,1.6,7.1,4.9,7.1
		c1.7,0,2.9-0.6,3.7-1.7s1.2-2.9,1.2-5.3c0-2.4-0.4-4.2-1.2-5.4c-0.8-1.2-2-1.7-3.7-1.7C181.8,25.1,180.2,27.4,180.2,32.2z"/>
	<path d="M216.4,37c0,1.5-0.4,2.9-1.1,4c-0.8,1.2-1.9,2.1-3.3,2.7c-1.4,0.7-3.1,1-5.1,1c-1.6,0-3-0.1-4.1-0.3
		c-1.1-0.2-2.2-0.6-3.4-1.2v-5.9c1.3,0.6,2.6,1.1,3.9,1.5c1.4,0.4,2.6,0.5,3.7,0.5c1,0,1.7-0.2,2.1-0.5c0.5-0.3,0.7-0.8,0.7-1.3
		c0-0.3-0.1-0.6-0.3-0.9s-0.5-0.5-0.9-0.8c-0.4-0.3-1.5-0.8-3.2-1.6c-1.6-0.7-2.8-1.4-3.6-2.1c-0.8-0.7-1.4-1.5-1.8-2.3
		s-0.6-1.9-0.6-3.1c0-2.2,0.8-4,2.4-5.2c1.6-1.3,3.9-1.9,6.7-1.9c2.5,0,5.1,0.6,7.7,1.7l-2,5.1c-2.3-1-4.2-1.6-5.9-1.6
		c-0.9,0-1.5,0.1-1.9,0.4c-0.4,0.3-0.6,0.7-0.6,1.1c0,0.5,0.2,0.9,0.7,1.3c0.5,0.4,1.8,1.1,4,2.1c2.1,0.9,3.6,2,4.4,3
		C216,34,216.4,35.4,216.4,37z M204.8,18.1v-0.5c1.7-1.8,2.8-3,3.3-3.5c0.5-0.5,0.8-1,1.1-1.4h7.1V13c-0.9,0.7-2.1,1.6-3.7,2.7
		c-1.6,1.1-2.7,1.9-3.5,2.4H204.8z"/>
	<path d="M230.1,25.1c-1.6,0-2.8,0.6-3.7,1.9c-0.9,1.3-1.3,3.1-1.3,5.3c0,4.7,1.8,7,5.3,7c1.1,0,2.1-0.1,3.1-0.4s2-0.7,3-1.1v5.6
		c-2,0.9-4.3,1.3-6.9,1.3c-3.7,0-6.5-1.1-8.5-3.2c-2-2.1-2.9-5.2-2.9-9.2c0-2.5,0.5-4.7,1.4-6.6c0.9-1.9,2.3-3.4,4.1-4.4
		c1.8-1,3.9-1.5,6.3-1.5c2.6,0,5.1,0.6,7.5,1.7l-2,5.2c-0.9-0.4-1.8-0.8-2.7-1.1C232.1,25.2,231.2,25.1,230.1,25.1z M225.9,18.1
		v-0.5c1.7-1.8,2.8-3,3.3-3.5c0.5-0.5,0.8-1,1.1-1.4h7.1V13c-0.9,0.7-2.1,1.6-3.7,2.7c-1.6,1.1-2.7,1.9-3.5,2.4H225.9z"/>
	<path d="M259.3,44.4h-6.6v-19h-5.9v-5.4h18.5v5.4h-5.9V44.4z"/>
	<path d="M290.7,32.2c0,4.1-1,7.2-3,9.3c-2,2.1-5,3.2-8.8,3.2c-3.8,0-6.7-1.1-8.8-3.2c-2-2.1-3.1-5.3-3.1-9.4c0-4.1,1-7.1,3-9.3
		c2-2.1,5-3.2,8.8-3.2c3.9,0,6.8,1.1,8.8,3.2C289.7,25,290.7,28.1,290.7,32.2z M273.9,32.2c0,4.7,1.6,7.1,4.9,7.1
		c1.7,0,2.9-0.6,3.7-1.7s1.2-2.9,1.2-5.3c0-2.4-0.4-4.2-1.2-5.4c-0.8-1.2-2-1.7-3.7-1.7C275.6,25.1,273.9,27.4,273.9,32.2z"/>
</g>
</svg>
